# xmcd
# 
# Track frame offsets:
#     150
#     32717
#     58416
#     82051
#     123386
#     145615
#     171445
#     187166
#     214793
#     232633
#     247892
#     273726
# 
# Disc length: 3873
# 
# Revision: 0
# Processed by: cddbd v1.5.2PL0 Copyright (c) Steve Scherf et al.
# Submitted via: BonkEnc v1.0.8
# 
DISCID=b00f1f0c
DTITLE=The Dave Raphael Band - Blowin' Hot and Bold
DYEAR=2006
DGENRE=Blues
TTITLE0=Help Me (Williamson)
TTITLE1=Bright Lights Big City (Reed)
TTITLE2=Hobo Blues (Hyde)
TTITLE3=Sweet, Sweet Angel (Woodbridge)
TTITLE4=Talk To Me Baby (James)
TTITLE5=Blues With A Feeling (Jacobs)
TTITLE6=Walking By Myself (Rogers)
TTITLE7=Mystery Train (Parker)
TTITLE8=You're The Only One (Raphael)
TTITLE9=I Gotta Move (Jones)
TTITLE10=Tore Down (Thompson/King)
TTITLE11=Don't Start Me Talking (Williamson)
EXTD=
EXTT0=
EXTT1=
EXTT2=
EXTT3=
EXTT4=
EXTT5=
EXTT6=
EXTT7=
EXTT8=
EXTT9=
EXTT10=
EXTT11=
PLAYORDER=
